<svg width="38" height="33" viewBox="0 0 38 33" fill="none" xmlns="http://www.w3.org/2000/svg">
<path d="M37.9998 12.1363C37.8277 11.7136 37.5569 11.3149 37.1579 10.9776L21.5233 0.952578C19.4844 -0.317526 18.4453 -0.317526 16.4409 0.952578L0.873901 10.9776C0.47494 11.3149 0.203027 11.7136 0.0307617 12.1363L18.982 26.1924C18.9821 26.1925 37.9998 12.1363 37.9998 12.1363Z" fill="#D07C40"/>
<path d="M4.75 3.1012H33.2499V23.1804H4.75V3.1012Z" fill="#E4E7E7"/>
<path d="M1.95694 30.8751L18.9774 19.6653L36.0417 30.8761C36.6722 30.604 37.19 30.1824 37.5355 29.6602L21.5234 19.0268C19.5023 17.7658 18.4394 17.7457 16.4409 19.0268L0.453613 29.6432C0.79802 30.1712 1.31813 30.6 1.95694 30.8751Z" fill="#E8AB54"/>
<path d="M9.5 8.12122V10.1292H28.5V8.12122H9.5ZM9.5 14.1442H28.5V12.1371H9.5V14.1442Z" fill="#C2C5C5"/>
<path d="M19 24.1843L38 12.1362V29.2044C38 30.868 36.4051 32.2165 34.4375 32.2165H3.56252C1.59486 32.2165 0 30.868 0 29.2044V12.1362C0 12.1362 19 24.1843 19 24.1843Z" fill="#E8AB54"/>
<path d="M34.8175 32.1832C35.587 32.1139 36.2828 31.8418 36.8255 31.4242L18.9775 19.6642L1.1709 31.4242C1.71472 31.8429 2.40944 32.114 3.18131 32.1843L34.8175 32.1832Z" fill="#F4B459"/>
<path d="M0.453613 30.6471C0.79802 31.1752 1.31924 31.6039 1.95694 31.88L18.9774 20.6712L36.0417 31.8809C36.6722 31.6089 37.19 31.1872 37.5355 30.6651L21.5234 20.0289C19.2802 18.6242 18.7363 18.56 16.4409 20.0289C16.4408 20.0289 0.453613 30.6471 0.453613 30.6471Z" fill="#F9D7A7"/>
</svg>
