<svg width="49" height="44" viewBox="0 0 49 44" fill="none" xmlns="http://www.w3.org/2000/svg">
<path d="M35.17 42.2653L4.43294 34.0293C1.98862 33.3743 0.535435 30.843 1.19363 28.3866L7.60615 4.45476C8.26433 1.99843 10.7885 0.53286 13.2328 1.18782L43.9698 9.42377C46.4142 10.0787 47.8673 12.61 47.2091 15.0663L40.7966 38.9982C40.1385 41.4546 37.6143 42.9202 35.17 42.2653Z" fill="#F2C500"/>
<path d="M14.613 1.55756L13.2685 6.57539C12.9901 7.61459 13.6068 8.6828 14.646 8.96126C15.6852 9.23971 16.7534 8.62298 17.0319 7.58377L18.3764 2.56594L14.613 1.55756Z" fill="#F59D00"/>
<path d="M10.6567 23.8496C9.61749 23.5711 9.00076 22.5029 9.27922 21.4637L11.2739 14.0195C11.5523 12.9803 12.6205 12.3636 13.6598 12.642C14.699 12.9205 15.3157 13.9887 15.0372 15.0279L13.0426 22.4721C12.7641 23.5113 11.6958 24.128 10.6567 23.8496Z" fill="#F59D00"/>
<path d="M9.6705 27.5304C8.63129 27.252 7.56308 27.8687 7.28462 28.9079L5.9401 33.9257L9.70345 34.9341L11.048 29.9163C11.3264 28.8771 10.7096 27.8088 9.6705 27.5304Z" fill="#F59D00"/>
<path d="M43.6333 9.33354L28.4119 5.25497L19.7389 37.6231L34.9603 41.7016C37.3813 42.3504 39.8786 40.9085 40.5273 38.4875L46.8474 14.9006C47.4961 12.4796 46.0542 9.98223 43.6333 9.33354Z" fill="#F59D00"/>
<path d="M42.4501 32.8278L30.0804 29.5134C26.7909 28.6319 24.7532 25.2416 25.6783 22.0141C26.5769 18.8794 29.8746 17.0349 33.0818 17.8943L45.5558 21.2367L42.45 32.8278L42.4501 32.8278Z" fill="#E87E04"/>
<path d="M31.4112 25.7289C32.7449 26.0863 34.1158 25.2948 34.4731 23.9612C34.8305 22.6275 34.039 21.2567 32.7053 20.8993C31.3717 20.542 30.0008 21.3334 29.6435 22.6671C29.2861 24.0007 30.0776 25.3716 31.4112 25.7289Z" fill="#D55400"/>
</svg>
